<svg xmlns="http://www.w3.org/2000/svg" width="114" height="45" fill="none"><path fill="#fff" d="M34.02 23.296q0 2.895-.957 5.497-.956 2.604-2.709 4.595-1.726 1.965-4.196 3.134-2.444 1.142-5.471 1.142t-5.498-1.142a13 13 0 0 1-4.196-3.08q-1.725-1.967-2.656-4.569-.93-2.602-.93-5.524 0-2.948.983-5.498 1.009-2.576 2.816-4.462a13 13 0 0 1 4.302-3q2.496-1.116 5.498-1.116 2.947 0 5.338 1.142a12.3 12.3 0 0 1 4.09 3.054q1.725 1.912 2.656 4.462.93 2.55.93 5.365m-4.569.265q0-1.487-.159-3.027a18 18 0 0 0-.505-2.975 13 13 0 0 0-1.009-2.682 8 8 0 0 0-1.62-2.178q-.983-.93-2.364-1.461-1.38-.558-3.213-.558-1.7 0-3.001.558a7.1 7.1 0 0 0-2.231 1.46 8.2 8.2 0 0 0-1.594 2.179q-.637 1.248-1.036 2.655a19 19 0 0 0-.53 2.869 26 26 0 0 0-.16 2.842q0 1.354.16 2.841.158 1.488.557 2.922.397 1.434 1.036 2.735a8.8 8.8 0 0 0 1.593 2.284 7.3 7.3 0 0 0 2.258 1.567q1.301.585 3 .585 1.78 0 3.108-.532a7.4 7.4 0 0 0 2.337-1.434 8.1 8.1 0 0 0 1.62-2.15q.664-1.25 1.036-2.63.399-1.408.558-2.895.16-1.514.16-2.975M60.551 37v-.77q.293 0 .611-.027.32-.052.585-.16.265-.132.425-.344.186-.24.186-.611 0-.186-.266-.638-.24-.477-.637-1.089a34 34 0 0 0-.877-1.328q-.45-.69-.903-1.3-.45-.639-.797-1.116-.345-.506-.504-.717-.186.238-.585.717-.398.477-.876 1.089-.478.584-.983 1.248-.504.637-.93 1.248-.397.61-.663 1.089-.266.478-.266.744 0 .372.16.61.186.213.451.346.266.132.584.186.319.053.611.053V37h-5.975v-.77q.398 0 .743-.16.372-.185.797-.584.452-.397.983-1.036.531-.663 1.275-1.646l3.85-5.1-3.479-5.072a17 17 0 0 0-.93-1.275 5.7 5.7 0 0 0-.929-1.01 3.6 3.6 0 0 0-1.089-.663q-.584-.24-1.407-.266v-.744h8.658v.744h-.213q-.531 0-.93.186-.37.186-.371.797 0 .24.345.876.372.638.824 1.381.478.744.902 1.408.453.638.638.903.186-.265.664-.903.504-.664 1.01-1.381.503-.744.876-1.408.398-.663.398-.93 0-.584-.505-.743a2.7 2.7 0 0 0-.982-.186v-.744h6.214v.744q-1.062.027-2.098.85-1.01.797-1.912 1.886a27 27 0 0 0-1.62 2.23 43 43 0 0 1-1.248 1.833l4.754 6.746q.717 1.035 1.221 1.673.532.638.983.983.451.346.877.478.45.105 1.009.133V37zm17.184-24.593a2.04 2.04 0 0 1-.584 1.46q-.585.611-1.434.611a2.04 2.04 0 0 1-1.461-.584q-.585-.585-.584-1.487 0-.85.584-1.408a2.04 2.04 0 0 1 1.46-.584q.825 0 1.408.584.61.585.611 1.408M71.202 37v-.77q.903 0 1.46-.133.558-.133.85-.478.319-.345.425-.903.106-.584.106-1.46v-9.8q0-.453-.053-.93a2.8 2.8 0 0 0-.186-.877 1.35 1.35 0 0 0-.425-.637q-.266-.266-.743-.266-.32 0-.69.106a6 6 0 0 0-.744.213l-.266-.717 5.55-2.231h.877v15.138q0 .876.106 1.461.106.558.399.903.319.346.85.478.558.133 1.46.133V37zm23.876-16.652q0 .744-.558 1.301-.531.558-1.275.558-.504 0-.876-.213-.372-.238-.717-.478a12 12 0 0 0-.611-.478 1 1 0 0 0-.637-.239q-.585 0-1.302.903t-1.354 2.178v8.87q0 1.755.664 2.63.663.85 2.55.85V37H81.48v-.77q1.036 0 1.593-.16.585-.16.877-.557.293-.399.345-1.036.08-.664.08-1.62v-7.915q0-.956-.053-1.7-.027-.77-.186-1.3-.16-.56-.505-.85-.318-.293-.903-.293-.584 0-1.248.266l-.213-.717 5.657-2.231h.824v4.143q.345-.637.823-1.355.478-.717 1.062-1.328.611-.638 1.302-1.035a2.97 2.97 0 0 1 2.496-.266q.478.133.824.425.371.293.584.717.24.399.239.93m18.219 13.996q-.372.505-.85 1.063a7.6 7.6 0 0 1-1.009.982 5 5 0 0 1-1.168.69 3.2 3.2 0 0 1-1.328.293q-.637 0-1.063-.266a2 2 0 0 1-.637-.69 3.6 3.6 0 0 1-.345-.983 7 7 0 0 1-.08-1.089l-1.328 1.063q-.664.53-1.381.982a8 8 0 0 1-1.487.69 4.7 4.7 0 0 1-1.674.293q-1.035 0-1.859-.372a3.8 3.8 0 0 1-1.354-.983 4.4 4.4 0 0 1-.85-1.487 6 6 0 0 1-.292-1.886q0-1.115.504-2.045a7 7 0 0 1 1.381-1.7 10.6 10.6 0 0 1 1.939-1.38q1.09-.638 2.231-1.116a28 28 0 0 1 2.231-.876l1.939-.664v-.744q0-.93-.133-1.78a4.1 4.1 0 0 0-.478-1.54 2.8 2.8 0 0 0-1.036-1.089q-.664-.398-1.779-.398-.93 0-1.461.265a1.8 1.8 0 0 0-.823.718 2.8 2.8 0 0 0-.346 1.088q-.08.612-.079 1.355 0 .903-.345 1.408-.346.504-1.355.504-.93 0-1.301-.531-.372-.53-.372-1.381 0-1.248.664-2.125a5.4 5.4 0 0 1 1.647-1.434 7.6 7.6 0 0 1 2.177-.797 10 10 0 0 1 2.205-.265q1.726 0 2.895.345 1.195.319 1.912 1.089.717.744 1.009 1.939.319 1.195.319 2.895v7.994q.026.425.026.823.027.371.08.638.053.371.239.69.186.292.637.292.213 0 .532-.186a8 8 0 0 0 .637-.478q.318-.265.584-.531.293-.266.425-.425zm-6.48-8.34q-1.01.373-2.204.904-1.196.531-2.231 1.248a7.1 7.1 0 0 0-1.727 1.594q-.69.876-.69 1.965 0 .61.186 1.195t.557 1.062q.372.479.877.77.53.293 1.222.293.531 0 1.062-.186a6 6 0 0 0 1.036-.478q.53-.32 1.009-.664.504-.372.903-.69z"/><rect width="46" height="45" x="46" y="45" fill="url(#a)" rx="22.5" transform="rotate(180 46 45)"/><g clip-path="url(#b)" filter="url(#c)"><path fill="#fff" d="M24.057 11.603c1.404-1.021 3.033-1.532 4.872-1.532 1.01 0 2.12.27 3.327.837q1.811.83 2.864 1.957c1.446 1.816 2.05 3.93 1.84 6.34-.225 2.412-1.012 4.299-2.373 5.632L23.93 35.603c-.267.27-.604.397-.997.397s-.716-.128-.983-.397a1.34 1.34 0 0 1-.393-.993c0-.397.127-.738.393-1.007l6.444-6.51c.351-.313.351-.64 0-.994-.35-.354-.673-.354-.982 0l-6.444 6.51a1.33 1.33 0 0 1-.997.398c-.393 0-.716-.128-.983-.397a1.34 1.34 0 0 1-.393-.993c0-.397.127-.738.393-1.007l6.444-6.51q.57-.532 0-1.065c-.323-.354-.632-.354-.982 0l-6.444 6.582a1.38 1.38 0 0 1-.997.397c-.393 0-.73-.127-1.025-.397a1.32 1.32 0 0 1-.421-.993q0-.596.463-1.064l6.458-6.524c.351-.355.351-.681 0-.993s-.688-.312-.997 0l-6.514 6.539c-.309.283-.632.44-.983.44-.393 0-.73-.143-.982-.44a1.45 1.45 0 0 1-.407-1.022c0-.397.14-.723.407-.993 4.296-4.368 6.949-7.007 7.96-7.985l4.998 4.993c.547.524 1.179.794 1.951.794.983 0 1.755-.397 2.33-1.192a2.6 2.6 0 0 0 .422-1.929 3.26 3.26 0 0 0-.885-1.801zm2.892 8.979-5.98-6.057-9.94 10.042c-1.18-1.205-1.853-3.05-2.007-5.56-.155-2.496.519-4.667 2.007-6.482C12.7 10.85 14.693 10 17.01 10c2.331 0 4.31.851 5.925 2.525l5.995 6.057c.267.27.393.595.393.992 0 .398-.126.738-.393 1.008a1.4 1.4 0 0 1-1.01.397c-.38 0-.703-.142-.97-.397"/></g><defs><linearGradient id="a" x1="69" x2="69" y1="57.802" y2="100.474" gradientUnits="userSpaceOnUse"><stop stop-color="#006F6D"/><stop offset="1" stop-color="#019954"/></linearGradient><clipPath id="b"><path fill="#fff" d="M5.111 4.111H40.89V39.89H5.111z"/></clipPath><filter id="c" width="34.815" height="32.815" x="5.593" y="10" color-interpolation-filters="sRGB" filterUnits="userSpaceOnUse"><feFlood flood-opacity="0" result="BackgroundImageFix"/><feColorMatrix in="SourceAlpha" result="hardAlpha" values="0 0 0 0 0 0 0 0 0 0 0 0 0 0 0 0 0 0 127 0"/><feOffset dy="3.407"/><feGaussianBlur stdDeviation="1.704"/><feComposite in2="hardAlpha" operator="out"/><feColorMatrix values="0 0 0 0 0 0 0 0 0 0 0 0 0 0 0 0 0 0 0.25 0"/><feBlend in2="BackgroundImageFix" result="effect1_dropShadow_149_23356"/><feBlend in="SourceGraphic" in2="effect1_dropShadow_149_23356" result="shape"/></filter></defs></svg>